{"title":"Elysium 2013 CAM XviD TANGiNA","uid":8809101,"size":1197271947,"categoryP":"video","categoryS":"movies","magnet":"?xt=urn:btih:edd2316e523959cbf407672af85c4f737223a218&amp;dn=Elysium+2013+CAM+XviD+TANGiNA&amp;tr=udp%3A%2F%2Ftracker.openbittorrent.com%3A80&amp;tr=udp%3A%2F%2Fopen.demonii.com%3A1337&amp;tr=udp%3A%2F%2Ftracker.coppersurfer.tk%3A6969&amp;tr=udp%3A%2F%2Fexodus.desync.com%3A6969","seeders":1,"leechers":0,"uploader":"TeX","files":4,"time":1376414270,"description":"[img]http://i.imgur.com/5LTfSoe.jpg[/img]\n\nGeneral\nComplete name : Elysium.2013.CAM.XviD-TANGiNA \nFormat : AVI\nFormat/Info : Audio Video Interleave\nFile size : 1.11 GiB\nDuration : 1h 36mn\nOverall bit rate : 1 634 Kbps\nWriting application : VirtualDubMod 1.5.10.2 (build 2542/release)\nWriting library : VirtualDubMod build 2542/release\n\nVideo\nID : 0\nFormat : MPEG-4 Visual\nFormat profile : Advanced Simple@L5\nFormat settings, BVOP : 2\nFormat settings, QPel : No\nFormat settings, GMC : No warppoints\nFormat settings, Matrix : Default (H.263)\nCodec ID : XVID\nCodec ID/Hint : XviD\nDuration : 1h 36mn\nBit rate : 1 497 Kbps\nWidth : 720 pixels\nHeight : 264 pixels\nDisplay aspect ratio : 2.727\nFrame rate : 24.000 fps\nColor space : YUV\nChroma subsampling : 4:2:0\nBit depth : 8 bits\nScan type : Progressive\nCompression mode : Lossy\nBits/(Pixel*Frame) : 0.328\nStream size : 1.01 GiB (92%)\nWriting library : XviD 1.2.1 (UTC 2008-12-04)\n\nAudio\nID : 1\nFormat : MPEG Audio\nFormat version : Version 1\nFormat profile : Layer 3\nCodec ID : 55\nCodec ID/Hint : MP3\nDuration : 1h 36mn\nBit rate mode : Constant\nBit rate : 128 Kbps\nChannel(s) : 2 channels\nSampling rate : 44.1 KHz\nCompression mode : Lossy\nStream size : 88.8 MiB (8%)\nAlignment : Split accross interleaves\nInterleave, duration : 42 ms (1.00 video frame)\nInterleave, preload duration : 500 ms\n\n\nSources : Elizium.Rai.ne.na.zemle.2013.D.CAMRip.1400MB/ELYSIUM FULL CAM AUDIO ONLY ENGLISH-NOGRP (THANKS)\n\n[img]http://i.imgur.com/JfzwNkT.png[/img]\n\n[img]http://i.imgur.com/e9APdBA.png[/img]\n\n[img]http://i.imgur.com/eKMhQPJ.png[/img]\n\n[img]http://i.imgur.com/R6bGkmK.png[/img]\n\n[img]http://i.imgur.com/LCIo0on.png[/img]","torrent":{"xt":"urn:btih:edd2316e523959cbf407672af85c4f737223a218","amp;dn":"Elysium+2013+CAM+XviD+TANGiNA","amp;tr":["udp%3A%2F%2Ftracker.openbittorrent.com%3A80","udp%3A%2F%2Fopen.demonii.com%3A1337","udp%3A%2F%2Ftracker.coppersurfer.tk%3A6969","udp%3A%2F%2Fexodus.desync.com%3A6969"],"infoHash":"edd2316e523959cbf407672af85c4f737223a218","infoHashBuffer":{"type":"Buffer","data":[237,210,49,110,82,57,89,203,244,7,103,42,248,92,79,115,114,35,162,24]},"announce":[],"urlList":[]}}